<svg width="23" height="24" viewBox="0 0 23 24" fill="none" xmlns="http://www.w3.org/2000/svg">
<path d="M17.6258 23.0999C18.1904 23.1024 18.7528 23.0254 19.2978 22.8711L19.2987 22.8708C19.9484 22.68 20.5008 22.2335 20.8413 21.6264C20.8414 21.6263 20.8415 21.6261 20.8416 21.626L21.9098 19.7658C22.2752 19.1297 22.0997 18.3037 21.5061 17.8902L17.2558 14.9205L17.2554 14.9203C16.6707 14.515 15.8874 14.6497 15.4572 15.2253L15.457 15.2255L14.2188 16.8934L14.2181 16.8943C14.0883 17.0738 13.8554 17.1235 13.6709 17.0162L13.6706 17.016L13.4351 16.88L13.4347 16.8797L13.4322 16.8783C12.6594 16.437 11.6958 15.8867 9.74799 13.8453C7.80052 11.8042 7.27377 10.7936 6.85225 9.98483L6.85063 9.98172L6.85055 9.98157L6.72142 9.73482L6.72089 9.73384C6.61349 9.53407 6.66407 9.28284 6.83528 9.14577L6.83596 9.14522L8.42681 7.84844L8.42707 7.84822C8.97593 7.39767 9.10107 6.58412 8.71838 5.97715L8.71815 5.97678L5.88365 1.52371C5.48987 0.903131 4.69602 0.713864 4.08235 1.10033C4.08235 1.10034 4.08234 1.10035 4.08233 1.10035L2.30536 2.21869C1.72462 2.57654 1.29977 3.15512 1.11836 3.83223L1.11822 3.83277C0.465948 6.32276 0.971315 10.5738 6.91291 16.7995L6.91291 16.7995C11.6383 21.7498 15.1737 23.0999 17.6258 23.0999ZM17.6258 23.0999C17.6256 23.0999 17.6255 23.0999 17.6253 23.0999L17.6258 22.9999V23.0999C17.6258 23.0999 17.6258 23.0999 17.6258 23.0999ZM21.1333 19.2901L21.1334 19.2899C21.2562 19.0765 21.1953 18.8009 21.0007 18.6655L21.0005 18.6654L16.7508 15.6959C16.7507 15.6958 16.7506 15.6958 16.7505 15.6957C16.5617 15.5653 16.3086 15.6069 16.1669 15.7959C16.1669 15.7959 16.1668 15.796 16.1668 15.7961L14.9298 17.4622C14.9297 17.4623 14.9296 17.4624 14.9295 17.4625C14.5298 18.0098 13.8038 18.1683 13.2267 17.8295C13.2266 17.8294 13.2265 17.8294 13.2264 17.8293L12.9975 17.6972L21.1333 19.2901ZM21.1333 19.2901L20.067 21.1523L20.0665 21.1533M21.1333 19.2901L20.0665 21.1533M20.0665 21.1533C19.8432 21.5536 19.4815 21.8467 19.0583 21.9727C16.9583 22.5766 13.2338 22.0946 7.55274 16.1426C1.87265 10.1916 1.40831 6.28587 1.98664 4.07786C2.10804 3.63057 2.38948 3.25102 2.77055 3.01765L2.77056 3.01766M20.0665 21.1533L2.77056 3.01766M2.77056 3.01766L2.77154 3.01704M2.77056 3.01766L2.77154 3.01704M2.77154 3.01704L4.54894 1.89989L4.54905 1.89982M2.77154 3.01704L4.54905 1.89982M4.54905 1.89982C4.74621 1.77553 5.00323 1.83405 5.13322 2.03891L5.13327 2.03898M4.54905 1.89982L5.13327 2.03898M5.13327 2.03898L6.67305 4.46098L6.67308 4.46102M5.13327 2.03898L6.67308 4.46102M6.67308 4.46102L7.96525 6.49151M6.67308 4.46102L7.96525 6.49151M7.96525 6.49151C7.96528 6.49156 7.96531 6.4916 7.96533 6.49164M7.96525 6.49151L7.96533 6.49164M7.96533 6.49164C8.09366 6.69509 8.05041 6.96727 7.86967 7.11599C7.86959 7.11605 7.86952 7.11611 7.86945 7.11617L6.2792 8.41217C6.27909 8.41226 6.27897 8.41235 6.27885 8.41245C5.75641 8.83128 5.60906 9.58574 5.92896 10.184C5.92903 10.1841 5.9291 10.1842 5.92917 10.1843L6.05499 10.4238C6.05502 10.4239 6.05506 10.424 6.05509 10.424C6.50603 11.2905 7.06741 12.3676 9.10471 14.5018C11.1419 16.6357 12.1699 17.2242 12.9971 17.697L7.96533 6.49164Z" fill="black" stroke="black" stroke-width="0.2"/>
</svg>
