<svg width="20" height="22" viewBox="0 0 20 22" fill="none" xmlns="http://www.w3.org/2000/svg">
<path d="M0.54985 7.73594L9.04985 0.777798C9.6025 0.325392 10.3975 0.325392 10.9502 0.777799L19.4502 7.73594C19.7982 8.02083 20 8.44687 20 8.89663V20.5C20 21.3284 19.3284 22 18.5 22H14C13.1716 22 12.5 21.3284 12.5 20.5V15.8256C12.5 14.9972 11.8284 14.3256 11 14.3256H9C8.17157 14.3256 7.5 14.9972 7.5 15.8256V20.5C7.5 21.3284 6.82843 22 6 22H1.5C0.671573 22 0 21.3284 0 20.5V8.89663C0 8.44687 0.201822 8.02083 0.54985 7.73594Z" fill="black"/>
</svg>
