<svg width="300" height="300" viewBox="0 0 300 300" fill="none" xmlns="http://www.w3.org/2000/svg">
<mask id="mask0" mask-type="alpha" maskUnits="userSpaceOnUse" x="0" y="0" width="300" height="300">
<rect width="300" height="300" fill="#C4C4C4"/>
</mask>
<g mask="url(#mask0)">
<path d="M109.769 227.989C85.6577 219.672 61.5465 211.367 36.9673 202.882C39.6076 195.105 42.356 187.868 44.4563 180.451C45.5364 176.646 47.8287 175.038 51.2011 173.814C56.9979 171.702 62.7467 169.457 68.3634 166.913C70.2116 166.073 72.1319 164.453 73.044 162.677C85.8737 137.929 98.6314 113.134 111.173 88.2308C113.333 83.9463 116.238 80.9459 120.342 78.5816C131.804 71.9927 143.205 65.2958 154.415 58.3109C158.819 55.5626 162.792 54.3864 167.82 56.5707C171.985 58.3829 172.201 58.0109 173.809 53.5703C175.453 49.0217 176.978 44.4251 178.634 39.8765C179.114 38.5563 179.906 37.3442 180.602 36C187.803 38.4123 194.596 40.7286 201.437 42.9489C203.897 43.753 204.617 44.9052 203.621 47.5335C201.329 53.5583 199.385 59.7151 197.068 66.448C200.333 67.7082 203.345 69.0883 206.501 70.0125C208.89 70.7205 210.222 72.1487 211.074 74.333C216.763 88.8069 222.464 103.281 228.176 117.755C229.16 120.239 229.485 122.603 228.932 125.4C225.332 143.726 221.996 162.089 218.575 180.451C216.823 189.836 215.095 199.221 213.246 208.583C212.526 212.219 212.886 215.399 215.035 218.616C218.527 223.861 221.719 229.321 224.78 234.83C225.536 236.186 225.86 238.262 225.416 239.715C223.148 247.144 220.543 254.465 218.107 261.846C217.195 264.606 215.263 263.91 213.438 263.286C206.069 260.789 198.724 258.197 191.356 255.677C175.681 250.3 160.019 244.935 144.333 239.607C143.661 239.379 142.881 239.463 142.161 239.403C141.861 239.103 141.609 238.647 141.249 238.515C130.76 234.998 120.258 231.494 109.769 227.989ZM212.886 255.425C214.711 249.628 216.439 244.503 217.843 239.295C218.119 238.274 217.243 236.81 216.607 235.718C213.222 229.885 209.754 224.089 206.273 218.304C205.013 216.204 204.665 214.187 205.217 211.631C206.874 204.022 208.122 196.317 209.538 188.648C211.434 178.375 213.294 168.113 215.239 157.852C217.255 147.159 219.427 136.501 221.335 125.796C221.683 123.864 221.575 121.595 220.879 119.783C215.959 106.905 210.762 94.1356 205.805 81.2819C204.581 78.1255 202.589 76.4333 199.373 75.3892C188.199 71.7527 177.086 67.8762 165.996 63.9877C163.296 63.0395 161.052 63.1716 158.507 64.7198C146.698 71.8847 134.72 78.7736 122.911 85.9625C121.026 87.1147 119.298 89.0229 118.278 90.9912C104.92 116.795 91.7425 142.706 78.3727 168.509C77.4606 170.274 75.6123 171.942 73.8001 172.77C68.3154 175.254 62.6867 177.463 57.0099 179.467C53.3374 180.763 51.0691 182.767 50.4571 186.824C50.049 189.548 48.9809 192.212 47.9607 194.805C46.9046 197.505 47.1686 198.933 50.337 200.001C73.7281 207.862 97.0471 215.916 120.39 223.909C145.005 232.334 169.609 240.771 194.224 249.184C200.189 251.188 206.165 253.168 212.886 255.425ZM189.891 64.4317C191.584 59.6071 193.192 55.2505 194.584 50.8459C194.812 50.1138 194.344 48.5416 193.792 48.3016C191.38 47.2815 188.847 46.5134 186.303 45.8893C185.643 45.7213 184.263 46.2253 184.083 46.7414C182.426 51.338 180.962 56.0066 179.33 60.9633C183.206 62.2354 186.327 63.2556 189.891 64.4317Z" fill="#242322"/>
<path d="M109.769 227.989C120.258 231.494 130.76 234.998 141.249 238.539C141.609 238.659 141.861 239.115 142.161 239.427C139.905 246.376 137.613 253.324 135.404 260.297C134.696 262.542 133.364 262.806 131.336 262.11C125.251 260.009 119.13 258.017 113.045 255.953C110.549 255.113 108.089 254.201 105.616 253.288C101.968 251.932 101.74 251.236 103.084 247.42C105.364 240.939 107.549 234.458 109.769 227.989Z" fill="#EFCE29"/>
<path d="M36.4398 102.705C31.8432 98.0841 27.7627 93.9916 23.1421 89.347C27.1986 85.2304 31.3272 81.0539 35.5637 76.7573C39.8723 80.8139 43.6768 84.2223 47.2292 87.8828C47.8293 88.4949 47.8413 90.6071 47.2532 91.2672C43.8088 95.2037 40.0883 98.9122 36.4398 102.705Z" fill="#F4D532"/>
<path d="M287.729 151.587C285.389 149.307 282.856 147.003 280.552 144.482C280.036 143.918 279.904 142.214 280.36 141.698C282.376 139.43 284.597 137.305 286.925 135.361C287.441 134.929 288.713 135.361 289.625 135.469C289.865 135.493 290.081 135.817 290.297 136.009C297.942 142.298 297.642 144.626 287.729 151.587Z" fill="#F7DA44"/>
<path d="M48.3575 127.716C50.4938 129.792 52.282 131.509 54.2983 133.465C51.982 135.961 50.6978 139.946 46.8453 139.274C44.8891 138.938 41.9607 136.057 41.9727 134.341C41.9967 131.028 45.3091 129.312 48.3575 127.716Z" fill="#F7DA44"/>
<path d="M3.65137 140.042C5.64363 137.713 7.41986 135.637 9.54414 133.141C11.9685 135.781 13.8887 137.857 15.7009 139.838C10.2762 147.699 9.29211 147.675 3.65137 140.042Z" fill="#F7DA44"/>
<path d="M252.912 172.098C250.224 169.962 248.279 168.413 246.263 166.817C248.099 163.685 249.492 160.24 252.876 160.624C254.832 160.84 257.701 163.505 258.001 165.413C258.577 169.025 254.532 170.094 252.912 172.098Z" fill="#F7DA44"/>
<path d="M212.887 255.425C206.166 253.168 200.189 251.188 194.236 249.148C169.621 240.735 145.018 232.298 120.402 223.873C97.0594 215.88 73.7403 207.814 50.3492 199.965C47.1808 198.897 46.9168 197.457 47.9729 194.769C48.9931 192.176 50.0612 189.512 50.4693 186.788C51.0693 182.731 53.3376 180.727 57.0221 179.431C62.6989 177.427 68.3276 175.218 73.8123 172.734C75.6246 171.906 77.4728 170.238 78.3849 168.473C91.7547 142.682 104.932 116.783 118.29 90.9792C119.31 89.0109 121.038 87.0907 122.923 85.9505C134.72 78.7616 146.698 71.8847 158.519 64.7078C161.064 63.1596 163.308 63.0275 166.008 63.9757C177.11 67.8642 188.211 71.7407 199.385 75.3772C202.601 76.4213 204.593 78.1135 205.818 81.2699C210.774 94.1236 215.971 106.905 220.892 119.771C221.588 121.583 221.684 123.852 221.348 125.784C219.439 136.489 217.267 147.159 215.251 157.84C213.319 168.101 211.446 178.375 209.55 188.636C208.134 196.305 206.898 203.998 205.23 211.619C204.677 214.163 205.013 216.18 206.286 218.292C209.766 224.077 213.223 229.873 216.619 235.706C217.255 236.798 218.131 238.274 217.855 239.283C216.451 244.503 214.711 249.628 212.887 255.425ZM163.032 92.3834C162.324 91.4113 162.06 91.0632 161.82 90.7032C159.131 86.6226 159.131 86.6106 155.123 89.143C149.41 92.7434 143.757 96.4399 137.985 99.9324C134.12 102.273 131.204 105.177 129.308 109.426C126.679 115.306 123.451 120.923 120.486 126.648C112.397 142.262 104.332 157.888 96.1832 173.466C95.0551 175.626 95.2951 176.886 97.4794 178.075C100.564 179.743 101.248 179.695 102.88 176.538C113.754 155.596 124.627 134.665 135.404 113.686C137.061 110.458 139.113 107.901 142.305 106.005C148.234 102.489 153.959 98.6242 159.756 94.8677C160.812 94.1716 161.772 93.3435 163.032 92.3834ZM84.5777 190.616C84.1577 188.792 83.7856 187.544 83.5816 186.26C83.2696 184.351 81.9974 183.715 80.4012 184.183C76.0446 185.468 71.7 186.788 67.4515 188.396C64.5711 189.476 66.0233 191.888 66.5514 193.689C67.0554 195.429 68.2196 196.089 70.3079 195.309C74.8205 193.617 79.4531 192.284 84.5777 190.616Z" fill="#FAFAFA"/>
<path d="M189.892 64.4318C186.34 63.2676 183.207 62.2355 179.343 60.9633C180.975 56.0067 182.439 51.338 184.095 46.7414C184.275 46.2374 185.656 45.7333 186.316 45.8893C188.86 46.5134 191.392 47.2815 193.805 48.3016C194.357 48.5297 194.825 50.1139 194.597 50.846C193.193 55.2506 191.584 59.5951 189.892 64.4318Z" fill="#E7E7E7"/>
<path d="M163.032 92.3833C161.772 93.3434 160.8 94.1715 159.744 94.8556C153.947 98.6001 148.222 102.465 142.294 105.993C139.101 107.889 137.049 110.446 135.393 113.674C124.615 134.665 113.742 155.596 102.868 176.526C101.224 179.683 100.54 179.743 97.4677 178.063C95.2834 176.874 95.0434 175.614 96.1716 173.454C104.321 157.876 112.386 142.25 120.475 126.636C123.439 120.911 126.668 115.294 129.296 109.414C131.192 105.165 134.109 102.261 137.973 99.9203C143.746 96.4278 149.399 92.7314 155.111 89.1309C159.12 86.6105 159.12 86.6106 161.808 90.6911C162.06 91.0631 162.336 91.4112 163.032 92.3833Z" fill="#252424"/>
<path d="M84.578 190.616C79.4533 192.272 74.8207 193.617 70.3201 195.309C68.2439 196.089 67.0797 195.429 66.5636 193.689C66.0356 191.888 64.5714 189.488 67.4638 188.396C71.7123 186.8 76.0569 185.468 80.4135 184.183C82.0097 183.715 83.2818 184.351 83.5939 186.26C83.7979 187.544 84.158 188.792 84.578 190.616Z" fill="#2F2E2E"/>
</g>
</svg>
