<svg width="250" height="200" viewBox="0 0 250 200" fill="none" xmlns="http://www.w3.org/2000/svg">
<path fill-rule="evenodd" clip-rule="evenodd" d="M63 134H154C154.515 134 155.017 133.944 155.5 133.839C155.983 133.944 156.485 134 157 134H209C212.866 134 216 130.866 216 127C216 123.134 212.866 120 209 120H203C199.134 120 196 116.866 196 113C196 109.134 199.134 106 203 106H222C225.866 106 229 102.866 229 99C229 95.134 225.866 92 222 92H200C203.866 92 207 88.866 207 85C207 81.134 203.866 78 200 78H136C139.866 78 143 74.866 143 71C143 67.134 139.866 64 136 64H79C75.134 64 72 67.134 72 71C72 74.866 75.134 78 79 78H39C35.134 78 32 81.134 32 85C32 88.866 35.134 92 39 92H64C67.866 92 71 95.134 71 99C71 102.866 67.866 106 64 106H24C20.134 106 17 109.134 17 113C17 116.866 20.134 120 24 120H63C59.134 120 56 123.134 56 127C56 130.866 59.134 134 63 134ZM233 127C233 130.866 229.866 134 226 134C222.134 134 219 130.866 219 127C219 123.134 222.134 120 226 120C229.866 120 233 123.134 233 127Z" fill="#F3F7FF"/>
<path fill-rule="evenodd" clip-rule="evenodd" d="M96 66H163L157 75L165 81H94L103 75L96 66Z" fill="#E8F0FE"/>
<path d="M197.778 146.355L198.953 145.927C198.773 145.433 198.303 145.105 197.778 145.105C197.252 145.105 196.783 145.433 196.603 145.927L197.778 146.355ZM197.778 144.645L196.603 145.073C196.783 145.567 197.252 145.895 197.778 145.895C198.303 145.895 198.773 145.567 198.953 145.073L197.778 144.645ZM171.75 145.5C171.75 144.81 172.31 144.25 173 144.25V141.75C170.929 141.75 169.25 143.429 169.25 145.5H171.75ZM173 146.75C172.31 146.75 171.75 146.19 171.75 145.5H169.25C169.25 147.571 170.929 149.25 173 149.25V146.75ZM195.428 146.75H173V149.25H195.428V146.75ZM196.603 145.927C196.428 146.409 195.966 146.75 195.428 146.75V149.25C197.051 149.25 198.429 148.22 198.953 146.782L196.603 145.927ZM200.128 146.75C199.59 146.75 199.128 146.409 198.953 145.927L196.603 146.782C197.126 148.22 198.505 149.25 200.128 149.25V146.75ZM203 146.75H200.128V149.25H203V146.75ZM204.25 145.5C204.25 146.19 203.69 146.75 203 146.75V149.25C205.071 149.25 206.75 147.571 206.75 145.5H204.25ZM203 144.25C203.69 144.25 204.25 144.81 204.25 145.5H206.75C206.75 143.429 205.071 141.75 203 141.75V144.25ZM200.128 144.25H203V141.75H200.128V144.25ZM198.953 145.073C199.128 144.591 199.59 144.25 200.128 144.25V141.75C198.505 141.75 197.126 142.78 196.603 144.218L198.953 145.073ZM195.428 144.25C195.966 144.25 196.428 144.591 196.603 145.073L198.953 144.218C198.429 142.78 197.051 141.75 195.428 141.75V144.25ZM173 144.25H195.428V141.75H173V144.25ZM57.1279 143C55.7472 143 54.6279 144.119 54.6279 145.5H57.1279V143ZM64 143H57.1279V145.5H64V143ZM66.5 145.5C66.5 144.119 65.3807 143 64 143V145.5H66.5ZM64 148C65.3807 148 66.5 146.881 66.5 145.5H64V148ZM57.1279 148H64V145.5H57.1279V148ZM54.6279 145.5C54.6279 146.881 55.7472 148 57.1279 148V145.5H54.6279ZM70 143C68.6193 143 67.5 144.119 67.5 145.5H70V143ZM91.4541 143H70V145.5H91.4541V143ZM93.9541 145.5C93.9541 144.119 92.8348 143 91.4541 143V145.5H93.9541ZM91.4541 148C92.8348 148 93.9541 146.881 93.9541 145.5H91.4541V148ZM70 148H91.4541V145.5H70V148ZM67.5 145.5C67.5 146.881 68.6193 148 70 148V145.5H67.5Z" fill="#75A4FE"/>
<path fill-rule="evenodd" clip-rule="evenodd" d="M93.0062 123.215V83C93.0062 81.3431 94.3658 80 96.043 80H165.523C166.615 80 167.5 80.8954 167.5 82V155C167.5 157.209 165.729 159 163.545 159H96.9611C94.7769 159 93.0062 157.209 93.0062 155V140.055V136M93.0062 131.897V127.394Z" fill="white"/>
<path d="M91.7562 123.215C91.7562 123.905 92.3158 124.465 93.0062 124.465C93.6965 124.465 94.2562 123.905 94.2562 123.215H91.7562ZM94.2562 136C94.2562 135.31 93.6965 134.75 93.0062 134.75C92.3158 134.75 91.7562 135.31 91.7562 136H94.2562ZM91.7562 131.897C91.7562 132.588 92.3158 133.147 93.0062 133.147C93.6965 133.147 94.2562 132.588 94.2562 131.897H91.7562ZM94.2562 127.394C94.2562 126.703 93.6965 126.144 93.0062 126.144C92.3158 126.144 91.7562 126.703 91.7562 127.394H94.2562ZM94.2562 123.215V83H91.7562V123.215H94.2562ZM94.2562 83C94.2562 82.0479 95.0417 81.25 96.043 81.25V78.75C93.6899 78.75 91.7562 80.6384 91.7562 83H94.2562ZM96.043 81.25H165.523V78.75H96.043V81.25ZM165.523 81.25C165.911 81.25 166.25 81.5724 166.25 82H168.75C168.75 80.2184 167.318 78.75 165.523 78.75V81.25ZM166.25 82V155H168.75V82H166.25ZM166.25 155C166.25 156.532 165.026 157.75 163.545 157.75V160.25C166.433 160.25 168.75 157.886 168.75 155H166.25ZM163.545 157.75H96.9611V160.25H163.545V157.75ZM96.9611 157.75C95.4805 157.75 94.2562 156.532 94.2562 155H91.7562C91.7562 157.886 94.0732 160.25 96.9611 160.25V157.75ZM94.2562 155V140.055H91.7562V155H94.2562ZM94.2562 140.055V136H91.7562V140.055H94.2562ZM94.2562 131.897V127.394H91.7562V131.897H94.2562Z" fill="#75A4FE"/>
<path d="M95 80V68C95 66.8954 95.8036 66 96.7949 66L163.205 66C164.196 66 165 66.8954 165 68V80" stroke="#75A4FE" stroke-width="2.5"/>
<path fill-rule="evenodd" clip-rule="evenodd" d="M113.5 101C115.433 101 117 99.433 117 97.5C117 95.567 115.433 94 113.5 94C111.567 94 110 95.567 110 97.5C110 99.433 111.567 101 113.5 101Z" fill="white" stroke="#75A4FE" stroke-width="2.5"/>
<path fill-rule="evenodd" clip-rule="evenodd" d="M146.5 101C148.433 101 150 99.433 150 97.5C150 95.567 148.433 94 146.5 94C144.567 94 143 95.567 143 97.5C143 99.433 144.567 101 146.5 101Z" fill="white" stroke="#75A4FE" stroke-width="2.5"/>
<path d="M114 130C114 121.163 121.163 114 130 114C138.837 114 146 121.163 146 130" stroke="#75A4FE" stroke-width="2.5" stroke-linecap="round"/>
<path d="M96.061 66.9968L103.168 74.0121C103.643 74.4811 103.534 75.2752 102.95 75.5986L95 80" stroke="#75A4FE" stroke-width="2.5" stroke-linecap="round"/>
<path d="M164.109 67.0693L157.307 74.0066C156.842 74.4804 156.96 75.2669 157.542 75.5846L165.636 80" stroke="#75A4FE" stroke-width="2.5" stroke-linecap="round"/>
<path d="M155.166 40.471L154.233 39.6393L154.233 39.6393L155.166 40.471ZM156.931 40.3696L157.763 39.4365L157.763 39.4365L156.931 40.3696ZM144.067 52.9241L143.134 52.0924L143.134 52.0924L144.067 52.9241ZM144.168 54.689L143.337 55.6221L143.337 55.6221L144.168 54.689ZM145.933 54.5876L146.866 55.4193L146.866 55.4193L145.933 54.5876ZM157.033 42.1345L157.966 42.9662L157.966 42.9662L157.033 42.1345ZM104.933 40.471L104 41.3027L104 41.3027L104.933 40.471ZM103.067 42.1345L104 41.3027L104 41.3027L103.067 42.1345ZM114.166 54.5876L113.233 55.4193L113.233 55.4193L114.166 54.5876ZM115.931 54.689L116.763 55.6221L116.763 55.6221L115.931 54.689ZM116.033 52.9241L116.966 52.0924L116.966 52.0924L116.033 52.9241ZM132.5 37C132.5 35.6193 131.381 34.5 130 34.5V37H132.5ZM132.5 53.7559V37H130V53.7559H132.5ZM130 56.2559C131.381 56.2559 132.5 55.1366 132.5 53.7559H130V56.2559ZM127.5 53.7559C127.5 55.1366 128.619 56.2559 130 56.2559V53.7559H127.5ZM127.5 37V53.7559H130V37H127.5ZM130 34.5C128.619 34.5 127.5 35.6193 127.5 37H130V34.5ZM156.1 41.3027L156.1 41.3027L157.763 39.4365C156.732 38.5178 155.152 38.6086 154.233 39.6393L156.1 41.3027ZM145 53.7559L156.1 41.3027L154.233 39.6393L143.134 52.0924L145 53.7559ZM145 53.7559L145 53.7559L143.134 52.0924C142.215 53.1231 142.306 54.7034 143.337 55.6221L145 53.7559ZM145 53.7559L145 53.7559L143.337 55.6221C144.367 56.5408 145.948 56.45 146.866 55.4193L145 53.7559ZM156.1 41.3027L145 53.7559L146.866 55.4193L157.966 42.9662L156.1 41.3027ZM156.1 41.3027L156.1 41.3027L157.966 42.9662C158.885 41.9355 158.794 40.3551 157.763 39.4365L156.1 41.3027ZM104 41.3027L104 41.3027L105.866 39.6393C104.948 38.6086 103.367 38.5178 102.337 39.4365L104 41.3027ZM104 41.3027L104 41.3027L102.337 39.4365C101.306 40.3551 101.215 41.9355 102.134 42.9662L104 41.3027ZM115.1 53.7559L104 41.3027L102.134 42.9662L113.233 55.4193L115.1 53.7559ZM115.1 53.7559L115.1 53.7559L113.233 55.4193C114.152 56.45 115.732 56.5408 116.763 55.6221L115.1 53.7559ZM115.1 53.7559L115.1 53.7559L116.763 55.6221C117.794 54.7034 117.885 53.1231 116.966 52.0924L115.1 53.7559ZM104 41.3027L115.1 53.7559L116.966 52.0924L105.866 39.6393L104 41.3027Z" fill="#A4C3FE"/>
</svg>
